<svg fill="none" height="97" width="624" xmlns="http://www.w3.org/2000/svg"><path d="M62.016 32.576V1.664h11.712v72.064H62.016V42.112H11.712v31.616H0V1.664h11.712v30.912h50.304ZM173.326 1.664l-3.392 36.032 3.392 36.032h-12.032l-1.856-19.776c-3.883 6.741-8.811 12.01-14.784 15.808-5.931 3.755-12.523 5.632-19.776 5.632-6.997 0-13.248-1.579-18.752-4.736-5.504-3.2-9.813-7.659-12.928-13.376-3.072-5.717-4.608-12.245-4.608-19.584s1.536-13.867 4.608-19.584c3.115-5.717 7.424-10.155 12.928-13.312C111.63 1.6 117.881 0 124.878 0c7.253 0 13.845 1.877 19.776 5.632 5.973 3.755 10.901 9.003 14.784 15.744l1.856-19.712h12.032Zm-46.464 63.808c7.467 0 14.144-2.496 20.032-7.488 5.888-5.035 10.496-11.797 13.824-20.288-3.328-8.448-7.957-15.19-13.888-20.224-5.888-5.035-12.544-7.552-19.968-7.552-5.035 0-9.557 1.173-13.568 3.52-3.968 2.347-7.083 5.632-9.344 9.856-2.219 4.224-3.328 9.024-3.328 14.4 0 5.419 1.109 10.24 3.328 14.464 2.261 4.181 5.376 7.445 9.344 9.792 4.011 2.347 8.533 3.52 13.568 3.52ZM256.155 1.664h12.544l-39.36 79.04c-2.688 5.419-6.037 9.408-10.048 11.968-4.011 2.56-8.683 3.84-14.016 3.84-3.584 0-6.848-.448-9.792-1.344-2.944-.896-5.845-2.261-8.704-4.096v-9.344c2.901 1.835 5.675 3.157 8.32 3.968 2.688.81 5.696 1.216 9.024 1.216 3.712 0 6.891-.853 9.536-2.56 2.645-1.664 4.843-4.33 6.592-8l2.368-4.928h-5.312l-34.24-69.76h12.992l29.888 62.848 30.208-62.848ZM333.833 1.664h11.776v72.064h-11.776V38.272c-3.499 3.797-7.765 6.72-12.8 8.768-5.035 2.005-10.496 3.008-16.384 3.008-9.728 0-17.109-2.624-22.144-7.872-5.035-5.248-7.552-12.97-7.552-23.168V1.664h11.712V18.56c0 7.125 1.685 12.501 5.056 16.128 3.413 3.627 8.448 5.44 15.104 5.44 10.069 0 19.072-4.117 27.008-12.352V1.664ZM426.641 32.576V1.664h11.712v72.064h-11.712V42.112h-50.304v31.616h-11.712V1.664h11.712v30.912h50.304ZM537.951 1.664l-3.392 36.032 3.392 36.032h-12.032l-1.856-19.776c-3.883 6.741-8.811 12.01-14.784 15.808-5.931 3.755-12.523 5.632-19.776 5.632-6.997 0-13.248-1.579-18.752-4.736-5.504-3.2-9.813-7.659-12.928-13.376-3.072-5.717-4.608-12.245-4.608-19.584s1.536-13.867 4.608-19.584c3.115-5.717 7.424-10.155 12.928-13.312 5.504-3.2 11.755-4.8 18.752-4.8 7.253 0 13.845 1.877 19.776 5.632 5.973 3.755 10.901 9.003 14.784 15.744l1.856-19.712h12.032Zm-46.464 63.808c7.467 0 14.144-2.496 20.032-7.488 5.888-5.035 10.496-11.797 13.824-20.288-3.328-8.448-7.957-15.19-13.888-20.224-5.888-5.035-12.544-7.552-19.968-7.552-5.035 0-9.557 1.173-13.568 3.52-3.968 2.347-7.083 5.632-9.344 9.856-2.219 4.224-3.328 9.024-3.328 14.4 0 5.419 1.109 10.24 3.328 14.464 2.261 4.181 5.376 7.445 9.344 9.792 4.011 2.347 8.533 3.52 13.568 3.52ZM623.148 1.664v72.064h-11.776V45.44h-22.72l-23.936 28.288h-14.144l24.512-28.544c-4.608-.256-8.683-1.323-12.224-3.2-3.499-1.877-6.208-4.416-8.128-7.616-1.92-3.2-2.88-6.827-2.88-10.88 0-4.267 1.067-8.043 3.2-11.328 2.133-3.328 5.12-5.91 8.96-7.744 3.84-1.835 8.256-2.752 13.248-2.752h45.888ZM611.372 36.48V10.752h-32.32c-4.736 0-8.469 1.152-11.2 3.456-2.731 2.304-4.096 5.419-4.096 9.344 0 2.56.619 4.821 1.856 6.784s3.008 3.477 5.312 4.544c2.304 1.067 5.013 1.6 8.128 1.6h32.32Z" fill="#14151a"/></svg>