<svg fill="none" height="28" width="624" xmlns="http://www.w3.org/2000/svg"><path d="M10.296 22.488c-2.157 0-4.003-.456-5.537-1.368-1.535-.912-2.716-2.209-3.546-3.888C.404 15.552 0 13.552 0 11.229c0-2.302.404-4.293 1.213-5.972.83-1.68 2.011-2.976 3.546-3.888C6.293.456 8.139 0 10.296 0c1.513 0 2.903.238 4.168.715 1.285.477 2.374 1.172 3.266 2.084l-.996 2.084c-.954-.891-1.949-1.534-2.986-1.928-1.016-.415-2.146-.622-3.39-.622-2.468 0-4.355.777-5.661 2.333-1.307 1.555-1.96 3.743-1.96 6.563 0 2.84.653 5.039 1.96 6.594 1.306 1.555 3.193 2.333 5.66 2.333 1.245 0 2.375-.197 3.391-.591 1.037-.415 2.032-1.068 2.986-1.96l.996 2.084c-.892.892-1.98 1.587-3.266 2.084-1.265.477-2.655.715-4.168.715ZM23.355 22.209V.279H25.5l8.43 15.833L42.297.28h2.146v21.929H42.08V5.07l-7.31 13.748h-1.68L25.689 5.101V22.21h-2.333ZM60.664 22.488c-2.032 0-3.805-.456-5.32-1.368-1.492-.933-2.653-2.24-3.483-3.92-.809-1.679-1.213-3.67-1.213-5.971 0-2.302.404-4.293 1.213-5.972.809-1.68 1.96-2.976 3.453-3.888C56.828.456 58.61 0 60.664 0c2.073 0 3.857.456 5.35 1.369 1.513.912 2.675 2.208 3.483 3.888.83 1.659 1.245 3.639 1.245 5.94 0 2.302-.415 4.303-1.245 6.004-.83 1.68-2 2.986-3.514 3.919-1.493.912-3.266 1.368-5.32 1.368Zm0-2.27c2.343 0 4.157-.788 5.443-2.364 1.286-1.576 1.928-3.784 1.928-6.625s-.642-5.04-1.928-6.594c-1.286-1.576-3.1-2.364-5.443-2.364-2.302 0-4.096.788-5.381 2.364-1.286 1.555-1.929 3.753-1.929 6.594 0 2.82.643 5.028 1.929 6.625 1.285 1.576 3.079 2.364 5.38 2.364ZM75.892 22.675l-1.213-2.022a9.515 9.515 0 0 0 2.209-1.586c.643-.622 1.192-1.441 1.648-2.457.457-1.016.81-2.302 1.058-3.857.249-1.576.373-3.536.373-5.879V.28h14.526v21.929h-2.582V2.489h-9.58v5.038c0 3.048-.249 5.568-.746 7.559-.498 1.97-1.234 3.556-2.209 4.759a10.24 10.24 0 0 1-3.484 2.83ZM101.467 22.209V.279h13.841v2.147h-11.353v7.59h10.7v2.146h-10.7v7.9h11.353v2.147h-13.841ZM121.156 22.209V.279h2.551v9.706h13.157V.28h2.551v21.929h-2.551V12.193h-13.157v10.016h-2.551ZM155.861 22.488c-2.157 0-4.002-.456-5.537-1.368-1.534-.912-2.716-2.209-3.546-3.888-.808-1.68-1.213-3.68-1.213-6.003 0-2.302.405-4.293 1.213-5.972.83-1.68 2.012-2.976 3.546-3.888C151.859.456 153.704 0 155.861 0c1.514 0 2.903.238 4.168.715 1.286.477 2.374 1.172 3.266 2.084l-.995 2.084c-.954-.891-1.95-1.534-2.986-1.928-1.017-.415-2.147-.622-3.391-.622-2.467 0-4.354.777-5.661 2.333-1.306 1.555-1.959 3.743-1.959 6.563 0 2.84.653 5.039 1.959 6.594 1.307 1.555 3.194 2.333 5.661 2.333 1.244 0 2.374-.197 3.391-.591 1.036-.415 2.032-1.068 2.986-1.96l.995 2.084c-.892.892-1.98 1.587-3.266 2.084-1.265.477-2.654.715-4.168.715ZM168.858 22.209V.279h2.551v9.768h3.857L181.704.28h2.893l-6.812 10.14c.912.311 1.711.82 2.395 1.524.705.684 1.327 1.566 1.866 2.644l3.702 7.62h-2.8l-3.017-6.438c-.601-1.265-1.296-2.167-2.084-2.706-.788-.54-1.752-.809-2.893-.809h-3.545v9.954h-2.551ZM199.364 22.488c-2.032 0-3.805-.456-5.319-1.368-1.493-.933-2.654-2.24-3.483-3.92-.809-1.679-1.213-3.67-1.213-5.971 0-2.302.404-4.293 1.213-5.972.808-1.68 1.959-2.976 3.452-3.888C195.528.456 197.311 0 199.364 0c2.074 0 3.857.456 5.35 1.369 1.514.912 2.675 2.208 3.484 3.888.829 1.659 1.244 3.639 1.244 5.94 0 2.302-.415 4.303-1.244 6.004-.83 1.68-2.001 2.986-3.515 3.919-1.493.912-3.266 1.368-5.319 1.368Zm0-2.27c2.343 0 4.158-.788 5.444-2.364 1.285-1.576 1.928-3.784 1.928-6.625s-.643-5.04-1.928-6.594c-1.286-1.576-3.101-2.364-5.444-2.364-2.302 0-4.095.788-5.381 2.364-1.285 1.555-1.928 3.753-1.928 6.594 0 2.82.643 5.028 1.928 6.625 1.286 1.576 3.079 2.364 5.381 2.364ZM215.557 22.209V.279h13.717v2.21h-11.166v19.72h-2.551ZM242.874 22.488c-2.032 0-3.805-.456-5.319-1.368-1.493-.933-2.654-2.24-3.484-3.92-.808-1.679-1.213-3.67-1.213-5.971 0-2.302.405-4.293 1.213-5.972.809-1.68 1.96-2.976 3.453-3.888C239.038.456 240.821 0 242.874 0c2.074 0 3.857.456 5.35 1.369 1.514.912 2.675 2.208 3.484 3.888.829 1.659 1.244 3.639 1.244 5.94 0 2.302-.415 4.303-1.244 6.004-.83 1.68-2.001 2.986-3.515 3.919-1.493.912-3.266 1.368-5.319 1.368Zm0-2.27c2.343 0 4.158-.788 5.443-2.364 1.286-1.576 1.929-3.784 1.929-6.625s-.643-5.04-1.929-6.594c-1.285-1.576-3.1-2.364-5.443-2.364-2.302 0-4.095.788-5.381 2.364-1.286 1.555-1.928 3.753-1.928 6.594 0 2.82.642 5.028 1.928 6.625 1.286 1.576 3.079 2.364 5.381 2.364ZM268.611 22.209V.279h13.717v2.21h-11.166v19.72h-2.551ZM295.928 22.488c-2.032 0-3.805-.456-5.319-1.368-1.493-.933-2.654-2.24-3.484-3.92-.808-1.679-1.213-3.67-1.213-5.971 0-2.302.405-4.293 1.213-5.972.809-1.68 1.96-2.976 3.453-3.888C292.092.456 293.875 0 295.928 0c2.074 0 3.857.456 5.35 1.369 1.514.912 2.675 2.208 3.484 3.888.829 1.659 1.244 3.639 1.244 5.94 0 2.302-.415 4.303-1.244 6.004-.83 1.68-2.002 2.986-3.515 3.919-1.493.912-3.266 1.368-5.319 1.368Zm0-2.27c2.343 0 4.158-.788 5.443-2.364 1.286-1.576 1.929-3.784 1.929-6.625s-.643-5.04-1.929-6.594c-1.285-1.576-3.1-2.364-5.443-2.364-2.302 0-4.096.788-5.381 2.364-1.286 1.555-1.929 3.753-1.929 6.594 0 2.82.643 5.028 1.929 6.625 1.285 1.576 3.079 2.364 5.381 2.364ZM321.608 22.488c-2.157 0-4.002-.456-5.537-1.368-1.534-.912-2.716-2.209-3.546-3.888-.808-1.68-1.213-3.68-1.213-6.003 0-2.302.405-4.293 1.213-5.972.83-1.68 2.012-2.976 3.546-3.888C317.606.456 319.451 0 321.608 0c1.514 0 2.903.238 4.168.715 1.285.477 2.374 1.172 3.266 2.084l-.996 2.084c-.953-.891-1.949-1.534-2.986-1.928-1.016-.415-2.146-.622-3.39-.622-2.468 0-4.355.777-5.661 2.333-1.306 1.555-1.96 3.743-1.96 6.563 0 2.84.654 5.039 1.96 6.594 1.306 1.555 3.193 2.333 5.661 2.333 1.244 0 2.374-.197 3.39-.591 1.037-.415 2.033-1.068 2.986-1.96l.996 2.084c-.892.892-1.981 1.587-3.266 2.084-1.265.477-2.654.715-4.168.715ZM338.057 22.209l3.391-6.563L331.868.28h2.768l8.056 12.97L349.348.28h2.644l-11.228 21.929h-2.707ZM352.117 27.092v-7.03h2.146c1.078-1.348 1.877-3.172 2.395-5.474.519-2.322.778-5.205.778-8.647V.28h14.557v19.782h3.11v7.03h-2.333v-4.883h-18.351v4.883h-2.302Zm4.821-7.03h12.473V2.426h-9.58v3.702c0 3.338-.239 6.127-.716 8.367-.456 2.24-1.182 4.095-2.177 5.567ZM377.944 22.209l9.673-21.93h2.177l9.674 21.93h-2.644l-2.426-5.6h-11.415l-2.396 5.6h-2.643Zm10.731-18.943-4.759 11.198h9.58l-4.759-11.198h-.062ZM404.274 22.209V.279h8.678c2.364 0 4.168.571 5.412 1.712 1.265 1.14 1.898 2.768 1.898 4.883 0 2.094-.633 3.722-1.898 4.884-1.244 1.14-3.048 1.71-5.412 1.71h-6.127v8.74h-2.551Zm2.551-10.887h5.816c3.401 0 5.101-1.483 5.101-4.448 0-2.986-1.7-4.479-5.101-4.479h-5.816v8.927ZM434.696 22.488c-2.157 0-4.002-.456-5.537-1.368-1.534-.912-2.716-2.209-3.546-3.888-.809-1.68-1.213-3.68-1.213-6.003 0-2.302.404-4.293 1.213-5.972.83-1.68 2.012-2.976 3.546-3.888C430.694.456 432.539 0 434.696 0c1.513 0 2.903.238 4.168.715 1.285.477 2.374 1.172 3.266 2.084l-.996 2.084c-.954-.891-1.949-1.534-2.986-1.928-1.016-.415-2.146-.622-3.39-.622-2.468 0-4.355.777-5.661 2.333-1.307 1.555-1.96 3.743-1.96 6.563 0 2.84.653 5.039 1.96 6.594 1.306 1.555 3.193 2.333 5.661 2.333 1.244 0 2.374-.197 3.39-.591 1.037-.415 2.032-1.068 2.986-1.96l.996 2.084c-.892.892-1.981 1.587-3.266 2.084-1.265.477-2.655.715-4.168.715ZM452.77 22.209V2.489h-7.963V.278h18.507v2.21h-7.962v19.72h-2.582ZM467.656 22.209V.279h8.771c2.26 0 4.002.509 5.226 1.525 1.244.995 1.866 2.395 1.866 4.2 0 1.202-.311 2.228-.933 3.079-.622.85-1.483 1.472-2.582 1.866 1.265.332 2.25.943 2.955 1.835.726.892 1.089 2.022 1.089 3.39 0 1.95-.633 3.443-1.898 4.48-1.265 1.036-3.048 1.555-5.35 1.555h-9.144Zm2.488-12.131h5.91c3.297 0 4.945-1.286 4.945-3.857 0-2.592-1.648-3.888-4.945-3.888h-5.91v7.745Zm0 10.078h6.407c3.318 0 4.977-1.338 4.977-4.013s-1.659-4.012-4.977-4.012h-6.407v8.025ZM490.231 22.209V.279h13.841v2.147h-11.353v7.59h10.7v2.146h-10.7v7.9h11.353v2.147h-13.841ZM509.92 22.209V.279h2.551v9.706h13.157V.28h2.55v21.929h-2.55V12.193h-13.157v10.016h-2.551ZM535.138 22.209V.279h2.55v9.706h13.157V.28h2.551v21.929h-2.551V12.193h-13.157v10.016h-2.55ZM569.562 22.488c-2.032 0-3.805-.456-5.319-1.368-1.493-.933-2.654-2.24-3.483-3.92-.809-1.679-1.213-3.67-1.213-5.971 0-2.302.404-4.293 1.213-5.972.808-1.68 1.959-2.976 3.452-3.888C565.726.456 567.509 0 569.562 0c2.074 0 3.857.456 5.35 1.369 1.514.912 2.675 2.208 3.484 3.888.829 1.659 1.244 3.639 1.244 5.94 0 2.302-.415 4.303-1.244 6.004-.829 1.68-2.001 2.986-3.515 3.919-1.493.912-3.266 1.368-5.319 1.368Zm0-2.27c2.344 0 4.158-.788 5.444-2.364 1.285-1.576 1.928-3.784 1.928-6.625s-.643-5.04-1.928-6.594c-1.286-1.576-3.1-2.364-5.444-2.364-2.301 0-4.095.788-5.381 2.364-1.285 1.555-1.928 3.753-1.928 6.594 0 2.82.643 5.028 1.928 6.625 1.286 1.576 3.08 2.364 5.381 2.364ZM585.755 22.209V.279h13.717v2.21h-11.166v19.72h-2.551ZM613.072 22.488c-2.032 0-3.805-.456-5.319-1.368-1.493-.933-2.654-2.24-3.483-3.92-.809-1.679-1.213-3.67-1.213-5.971 0-2.302.404-4.293 1.213-5.972.808-1.68 1.959-2.976 3.452-3.888C609.236.456 611.019 0 613.072 0c2.074 0 3.857.456 5.35 1.369 1.514.912 2.675 2.208 3.484 3.888.829 1.659 1.244 3.639 1.244 5.94 0 2.302-.415 4.303-1.244 6.004-.83 1.68-2.001 2.986-3.515 3.919-1.493.912-3.266 1.368-5.319 1.368Zm0-2.27c2.343 0 4.158-.788 5.443-2.364 1.286-1.576 1.929-3.784 1.929-6.625s-.643-5.04-1.929-6.594c-1.285-1.576-3.1-2.364-5.443-2.364-2.302 0-4.095.788-5.381 2.364-1.286 1.555-1.928 3.753-1.928 6.594 0 2.82.642 5.028 1.928 6.625 1.286 1.576 3.079 2.364 5.381 2.364Z" fill="#37383f"/></svg>