<svg fill="none" height="72" width="624" xmlns="http://www.w3.org/2000/svg"><path d="M32.716 23.564c5.04 0 9.49.988 13.351 2.962 3.89 1.975 6.912 4.746 9.063 8.312 2.152 3.566 3.228 7.663 3.228 12.29 0 4.805-1.15 9.034-3.448 12.689-2.27 3.625-5.497 6.44-9.683 8.444-4.155 1.975-8.99 2.962-14.5 2.962-6.396 0-11.893-1.311-16.491-3.935-4.598-2.623-8.12-6.41-10.567-11.362C1.223 50.946 0 45.021 0 38.154c0-6.868 1.179-12.792 3.537-17.773 2.358-5.01 5.806-8.945 10.345-11.804 4.54-2.86 10.05-4.554 16.535-5.084 5.423-.442 9.505-.81 12.246-1.106 2.77-.324 4.967-.648 6.588-.972A32.389 32.389 0 0 0 53.98 0v7.383c-1.562.737-4.038 1.341-7.427 1.813-3.39.442-8.194.825-14.413 1.15-8.164.441-14.368 3.02-18.613 7.736-4.214 4.716-6.322 11.377-6.322 19.983v1.194c2.24-5.01 5.57-8.872 9.992-11.583 4.45-2.741 9.623-4.112 15.518-4.112ZM30.947 64.46c3.802 0 7.148-.707 10.036-2.122 2.889-1.444 5.114-3.463 6.676-6.057 1.592-2.594 2.387-5.6 2.387-9.019 0-3.419-.795-6.425-2.387-9.019-1.562-2.594-3.787-4.598-6.676-6.012-2.888-1.415-6.233-2.123-10.036-2.123-5.187 0-9.711 1.43-13.572 4.289-3.861 2.83-6.735 6.852-8.621 12.07.707 3.713 2.063 6.926 4.067 9.637 2.034 2.712 4.598 4.79 7.693 6.234 3.094 1.415 6.572 2.122 10.433 2.122ZM76.785 62.204l35.059-41.911h10.522v49.78h-8.046V27.942L79.084 70.074H68.74V20.293h8.046v41.911ZM166.211 23.564c5.04 0 9.49.988 13.351 2.962 3.891 1.975 6.912 4.746 9.064 8.312 2.151 3.566 3.227 7.663 3.227 12.29 0 4.805-1.15 9.034-3.448 12.689-2.27 3.625-5.497 6.44-9.683 8.444-4.155 1.975-8.989 2.962-14.501 2.962-6.395 0-11.892-1.311-16.49-3.935-4.598-2.623-8.12-6.41-10.566-11.362-2.447-4.98-3.67-10.905-3.67-17.772 0-6.868 1.179-12.792 3.537-17.773 2.358-5.01 5.806-8.945 10.345-11.804 4.539-2.86 10.051-4.554 16.535-5.084 5.423-.442 9.505-.81 12.246-1.106 2.771-.324 4.966-.648 6.588-.972A32.4 32.4 0 0 0 187.476 0v7.383c-1.562.737-4.038 1.341-7.427 1.813-3.39.442-8.194.825-14.413 1.15-8.164.441-14.368 3.02-18.613 7.736-4.214 4.716-6.322 11.377-6.322 19.983v1.194c2.24-5.01 5.571-8.872 9.992-11.583 4.45-2.741 9.623-4.112 15.518-4.112Zm-1.769 40.895c3.803 0 7.148-.707 10.036-2.122 2.889-1.444 5.114-3.463 6.676-6.057 1.592-2.594 2.387-5.6 2.387-9.019 0-3.419-.795-6.425-2.387-9.019-1.562-2.594-3.787-4.598-6.676-6.012-2.888-1.415-6.233-2.123-10.036-2.123-5.187 0-9.711 1.43-13.572 4.289-3.861 2.83-6.735 6.852-8.621 12.07.707 3.713 2.063 6.926 4.067 9.637 2.034 2.712 4.598 4.79 7.693 6.234 3.094 1.415 6.572 2.122 10.433 2.122ZM255.511 20.293v49.78h-8.135V26.88H216.96c.589 7.221.884 13.072.884 17.552 0 6.189-.545 11.229-1.636 15.12-1.09 3.89-2.785 6.764-5.084 8.62-2.27 1.858-5.217 2.786-8.842 2.786-2.889 0-5.497-.648-7.825-1.945v-6.41c2.151.913 4.17 1.37 6.056 1.37 2.299 0 4.171-.708 5.615-2.123 1.444-1.414 2.505-3.64 3.183-6.675.678-3.036 1.017-7 1.017-11.893 0-6.19-.427-13.852-1.282-22.99h46.465ZM276.769 62.204l35.059-41.911h10.522v49.78h-8.046V27.942l-35.236 42.133h-10.345V20.293h8.046v41.911ZM362.127 71.223c-5.806 0-10.95-1.09-15.43-3.271s-7.957-5.247-10.433-9.196c-2.476-3.95-3.714-8.474-3.714-13.573s1.238-9.623 3.714-13.573c2.476-3.949 5.953-7.014 10.433-9.195 4.48-2.181 9.624-3.272 15.43-3.272 5.806 0 10.949 1.09 15.429 3.272 4.48 2.18 7.958 5.246 10.434 9.195 2.476 3.95 3.714 8.474 3.714 13.573 0 5.1-1.238 9.623-3.714 13.573-2.476 3.95-5.954 7.014-10.434 9.196-4.48 2.18-9.623 3.271-15.429 3.271Zm0-6.764c4.303 0 8.046-.781 11.229-2.343 3.213-1.592 5.689-3.832 7.428-6.72 1.739-2.918 2.608-6.322 2.608-10.213 0-3.86-.869-7.25-2.608-10.168-1.739-2.918-4.215-5.158-7.428-6.72-3.183-1.592-6.926-2.388-11.229-2.388-4.303 0-8.061.796-11.274 2.388-3.183 1.562-5.644 3.802-7.383 6.72-1.739 2.918-2.608 6.307-2.608 10.168 0 3.89.869 7.295 2.608 10.213 1.739 2.888 4.2 5.128 7.383 6.72 3.213 1.562 6.971 2.343 11.274 2.343ZM393.627 20.293h51.284v6.675h-21.575v43.106h-8.134V26.968h-21.575v-6.675ZM455.408 47.57c.384 3.449 1.518 6.455 3.405 9.02 1.915 2.534 4.45 4.48 7.604 5.835 3.153 1.356 6.779 2.034 10.876 2.034 4.037 0 8.016-.663 11.936-1.99 3.92-1.355 7.472-3.242 10.655-5.659v6.411c-3.065 2.476-6.72 4.436-10.964 5.88-4.244 1.415-8.488 2.122-12.733 2.122-5.688 0-10.758-1.09-15.208-3.271-4.421-2.211-7.87-5.291-10.345-9.24-2.476-3.95-3.714-8.474-3.714-13.573 0-5.07 1.164-9.579 3.493-13.529 2.358-3.949 5.644-7.014 9.859-9.195 4.214-2.181 9.018-3.272 14.412-3.272 5.305 0 9.962 1.194 13.971 3.581 4.038 2.358 7.162 5.689 9.372 9.992 2.211 4.273 3.316 9.225 3.316 14.855h-45.935Zm19.144-21.663c-3.419 0-6.485.62-9.196 1.857-2.682 1.209-4.878 2.962-6.588 5.261-1.68 2.27-2.77 4.952-3.271 8.047h37.313c-.53-3.125-1.621-5.822-3.271-8.091-1.621-2.27-3.714-4.008-6.278-5.217-2.535-1.238-5.438-1.857-8.709-1.857ZM543.324 41.293l19.409 28.78h-9.726l-14.944-22.59-19.054 22.59h-7.56v-49.78h8.134v38.64l32.009-38.64h9.461l-17.729 21ZM623.15 20.293l-2.343 24.89 2.343 24.89h-8.312l-1.282-13.66c-2.682 4.657-6.086 8.297-10.212 10.92-4.097 2.593-8.651 3.89-13.661 3.89-4.834 0-9.152-1.09-12.954-3.271-3.802-2.211-6.779-5.291-8.931-9.24-2.122-3.95-3.183-8.46-3.183-13.529 0-5.07 1.061-9.579 3.183-13.528 2.152-3.95 5.129-7.015 8.931-9.196 3.802-2.21 8.12-3.316 12.954-3.316 5.01 0 9.564 1.297 13.661 3.89 4.126 2.594 7.53 6.22 10.212 10.877l1.282-13.617h8.312ZM591.053 64.37c5.158 0 9.771-1.725 13.838-5.173 4.067-3.478 7.251-8.15 9.55-14.015-2.299-5.836-5.497-10.492-9.594-13.97-4.067-3.478-8.665-5.217-13.794-5.217-3.478 0-6.602.81-9.372 2.431-2.742 1.621-4.893 3.89-6.455 6.809-1.533 2.918-2.299 6.233-2.299 9.947 0 3.743.766 7.074 2.299 9.992 1.562 2.888 3.713 5.143 6.455 6.764 2.77 1.621 5.894 2.432 9.372 2.432Z" fill="#14151a"/></svg>