<svg fill="none" height="31" width="624" xmlns="http://www.w3.org/2000/svg"><path d="M0 24.953V.315h2.411l9.471 17.788L21.283.315h2.412v24.638h-2.656V5.697l-8.213 15.447h-1.887L2.62 5.73v19.222H0ZM31.574 24.953V.315h15.552v2.41H34.37v8.528h12.022v2.412H34.37v8.876h12.756v2.412H31.574ZM51.25 30.44V22.54h2.412c1.211-1.514 2.108-3.564 2.69-6.15.583-2.61.875-5.848.875-9.716V.315h16.355V22.54h3.495v7.899h-2.621v-5.487h-20.62v5.487H51.25Zm5.417-7.899h14.014V2.726H59.918v4.159c0 3.75-.267 6.885-.803 9.4-.513 2.517-1.328 4.602-2.447 6.256ZM82.645 24.953V.315h2.69V20.2L100.19.315h2.201v24.638h-2.656V4.998L84.847 24.953h-2.202ZM131.475 30.44v-5.487h-21.213V.315h2.866v22.157h14.573V.315h2.901v22.157h3.494v7.968h-2.621ZM139.654 24.953V.315h2.691V20.2L157.198.315h2.201v24.638h-2.656V4.998l-14.888 19.955h-2.201ZM167.271 24.953V.315h2.866v10.903h14.783V.315h2.865v24.638h-2.865V13.7h-14.783v11.253h-2.866ZM206.264 25.267c-2.423 0-4.497-.512-6.221-1.537-1.724-1.026-3.052-2.482-3.984-4.369-.909-1.887-1.363-4.135-1.363-6.745 0-2.586.454-4.823 1.363-6.71.932-1.887 2.26-3.343 3.984-4.368C201.767.513 203.841 0 206.264 0c1.701 0 3.262.268 4.683.804 1.444.536 2.667 1.316 3.669 2.341l-1.118 2.342c-1.072-1.002-2.19-1.724-3.355-2.167-1.142-.466-2.411-.699-3.809-.699-2.773 0-4.893.874-6.361 2.621-1.468 1.748-2.202 4.206-2.202 7.374 0 3.192.734 5.662 2.202 7.41 1.468 1.747 3.588 2.62 6.361 2.62 1.398 0 2.667-.221 3.809-.664 1.165-.466 2.283-1.2 3.355-2.201l1.118 2.341c-1.002 1.002-2.225 1.782-3.669 2.342-1.421.536-2.982.803-4.683.803ZM220.867 24.953V.315h2.866v10.973h4.333L235.3.315h3.251l-7.654 11.393c1.025.35 1.922.92 2.691 1.712.792.769 1.491 1.76 2.097 2.97l4.159 8.563h-3.146l-3.39-7.234c-.675-1.422-1.456-2.435-2.341-3.04-.886-.607-1.969-.91-3.25-.91h-3.984v11.184h-2.866ZM255.143 25.267c-2.284 0-4.276-.512-5.976-1.537-1.678-1.049-2.983-2.517-3.915-4.404-.908-1.887-1.363-4.124-1.363-6.71 0-2.586.455-4.823 1.363-6.71.909-1.887 2.202-3.343 3.88-4.368C250.832.513 252.836 0 255.143 0c2.33 0 4.333.513 6.011 1.538 1.701 1.025 3.005 2.481 3.914 4.368.932 1.864 1.398 4.09 1.398 6.675 0 2.586-.466 4.835-1.398 6.745-.932 1.887-2.248 3.355-3.949 4.404-1.678 1.025-3.67 1.537-5.976 1.537Zm0-2.55c2.632 0 4.671-.886 6.116-2.657 1.444-1.77 2.166-4.252 2.166-7.444s-.722-5.661-2.166-7.409c-1.445-1.77-3.484-2.656-6.116-2.656-2.587 0-4.602.886-6.046 2.656-1.445 1.748-2.167 4.217-2.167 7.41 0 3.168.722 5.65 2.167 7.443 1.444 1.77 3.459 2.656 6.046 2.656ZM273.337 24.953V.315h15.412v2.48h-12.547v22.158h-2.865ZM304.029 25.267c-2.283 0-4.275-.512-5.976-1.537-1.678-1.049-2.982-2.517-3.914-4.404-.909-1.887-1.363-4.124-1.363-6.71 0-2.586.454-4.823 1.363-6.71.908-1.887 2.201-3.343 3.879-4.368C299.719.513 301.722 0 304.029 0c2.33 0 4.333.513 6.011 1.538 1.701 1.025 3.005 2.481 3.914 4.368.932 1.864 1.398 4.09 1.398 6.675 0 2.586-.466 4.835-1.398 6.745-.932 1.887-2.248 3.355-3.949 4.404-1.678 1.025-3.67 1.537-5.976 1.537Zm0-2.55c2.633 0 4.671-.886 6.116-2.657 1.444-1.77 2.167-4.252 2.167-7.444s-.723-5.661-2.167-7.409c-1.445-1.77-3.483-2.656-6.116-2.656-2.586 0-4.602.886-6.046 2.656-1.445 1.748-2.167 4.217-2.167 7.41 0 3.168.722 5.65 2.167 7.443 1.444 1.77 3.46 2.656 6.046 2.656ZM336.825 24.953l3.81-7.374L329.871.315h3.11l9.052 14.573L349.511.315h2.971l-12.616 24.638h-3.041ZM357.15 24.953V.315h2.866v10.903h14.783V.315h2.866v24.638h-2.866V13.7h-14.783v11.253h-2.866ZM385.484 24.953V.315h2.691V20.2L403.028.315h2.202v24.638h-2.656V4.998l-14.888 19.955h-2.202ZM413.101 24.953V.315h9.856c2.539 0 4.496.57 5.871 1.712 1.398 1.118 2.097 2.691 2.097 4.718 0 1.351-.35 2.505-1.049 3.46-.699.955-1.666 1.654-2.9 2.097 1.421.373 2.528 1.06 3.32 2.062.815 1.002 1.223 2.271 1.223 3.809 0 2.19-.711 3.868-2.132 5.033-1.421 1.164-3.425 1.747-6.011 1.747h-10.275Zm2.796-13.63h6.64c3.705 0 5.557-1.444 5.557-4.333 0-2.913-1.852-4.369-5.557-4.369h-6.64v8.702Zm0 11.323h7.199c3.728 0 5.592-1.503 5.592-4.508 0-3.006-1.864-4.508-5.592-4.508h-7.199v9.016ZM438.466 24.953V.315h15.552v2.41h-12.756v8.528h12.022v2.412h-12.022v8.876h12.756v2.412h-15.552ZM460.588 24.953V.315h9.751c2.656 0 4.683.64 6.081 1.922 1.421 1.281 2.131 3.11 2.131 5.486 0 2.354-.71 4.183-2.131 5.487-1.398 1.282-3.425 1.922-6.081 1.922h-6.885v9.82h-2.866Zm2.866-12.232h6.535c3.821 0 5.732-1.666 5.732-4.998 0-3.354-1.911-5.032-5.732-5.032h-6.535v10.03ZM494.769 25.267c-2.423 0-4.497-.512-6.221-1.537-1.724-1.026-3.052-2.482-3.984-4.369-.909-1.887-1.363-4.135-1.363-6.745 0-2.586.454-4.823 1.363-6.71.932-1.887 2.26-3.343 3.984-4.368C490.272.513 492.346 0 494.769 0c1.701 0 3.262.268 4.683.804 1.444.536 2.668 1.316 3.669 2.341l-1.118 2.342c-1.072-1.002-2.19-1.724-3.355-2.167-1.142-.466-2.411-.699-3.809-.699-2.773 0-4.893.874-6.361 2.621-1.468 1.748-2.201 4.206-2.201 7.374 0 3.192.733 5.662 2.201 7.41 1.468 1.747 3.588 2.62 6.361 2.62 1.398 0 2.667-.221 3.809-.664 1.165-.466 2.283-1.2 3.355-2.201l1.118 2.341c-1.001 1.002-2.225 1.782-3.669 2.342-1.421.536-2.982.803-4.683.803ZM509.372 24.953V.315h2.691V20.2L526.916.315h2.202v24.638h-2.656V4.998l-14.888 19.955h-2.202ZM543.035 24.953V2.796h-8.947V.315h20.794v2.48h-8.946v22.158h-2.901ZM559.76 24.953V.315h15.552v2.41h-12.756v8.528h12.022v2.412h-12.022v8.876h12.756v2.412H559.76ZM587.485 24.953V2.796h-8.947V.315h20.794v2.48h-8.947v22.158h-2.9ZM598.966 24.953 609.835.315h2.446l10.869 24.638h-2.971l-2.726-6.29h-12.825l-2.691 6.29h-2.971ZM611.023 3.67l-5.347 12.58h10.764l-5.347-12.58h-.07Z" fill="#37383f"/></svg>